PathFileType	4	(X/Y/Z)	7_coords_data.trc
DataRate	CameraRate	NumFrames	NumMarkers	Units	OrigDataRate	OrigDataStartFrame	OrigNumFrames
30.0	30.0	4	21	m	30.0	1	50
Frame#	Time	THUMB_TIP	THUMB_IP	THUMB_MCP	THUMB_CMC	INDEX_TIP	INDEX_DIP	INDEX_PIP	INDEX_MCP	MIDDLE_TIP	MIDDLE_DIP	MIDDLE_PIP	MIDDLE_MCP	RING_TIP	RING_DIP	RING_PIP	RING_MCP	PINKY_TIP	PINKY_DIP	PINKY_PIP	PINKY_MCP	WRIST
X1	Y1	Z1	X2	Y2	Z2	X3	Y3	Z3	X4	Y4	Z4	X5	Y5	Z5	X6	Y6	Z6	X7	Y7	Z7	X8	Y8	Z8	X9	Y9	Z9	X10	Y10	Z10	X11	Y11	Z11	X12	Y12	Z12	X13	Y13	Z13	X14	Y14	Z14	X15	Y15	Z15	X16	Y16	Z16	X17	Y17	Z17	X18	Y18	Z18	X19	Y19	Z19	X20	Y20	Z20	X21	Y21	Z21
0	0.0	0.011143699645996093	0.013311200141906739	1.0019199829101562	-0.001434030055999755	-0.002409660100936889	1.0102999877929688	-0.029741399765014647	-0.003321130037307739	1.024300048828125	-0.0418567008972168	0.01579319953918457	1.0366099853515625	-0.01594849967956543	-0.008359370231628417	0.89552001953125	-0.02322960090637207	-0.00917230987548828	0.9176690063476562	-0.029388299942016603	-0.008463459968566895	0.942156005859375	-0.03737580108642578	-0.0036687300205230713	0.9732479858398437	-0.009012080192565919	-0.0033559000492095936	0.9997750244140625	0.00785621976852417	0.0023966500759124753	0.9876420288085938	0.003279040098190307	0.012541199684143066	0.9643040161132812	-0.03671689987182617	0.02055940055847168	0.9661119995117188	0.003228699922561645	0.015546500205993652	1.0044600219726563	0.007913449764251708	0.022418800354003905	0.9901270141601562	0.005054369926452636	0.03358980178833008	0.9700579833984375	-0.033951900482177735	0.04226679992675781	0.9769450073242187	-0.003777479887008667	0.0783761978149414	0.9379929809570312	-0.008189579963684083	0.0697583999633789	0.954010986328125	-0.012930100440979003	0.06316310119628907	0.9677930297851562	-0.01819930076599121	0.052076400756835936	0.9870750122070312	-0.06792910003662109	0.03413819885253906	1.0336300048828124
1	0.03333333333333333	0.011608099937438965	0.013135100364685058	1.00175	-0.002733129978179931	-0.003450680017471313	1.0121300048828126	-0.029278900146484373	-0.005230760097503662	1.0234299926757813	-0.04412979888916015	0.015216099739074706	1.03302001953125	-0.016250999450683593	-0.00950656032562256	0.895780029296875	-0.022824899673461914	-0.009243040084838868	0.9179819946289063	-0.029565500259399413	-0.007873509883880615	0.940458984375	-0.03861330032348633	-0.002013390064239502	0.9758629760742188	-0.007690249919891357	-0.001518859982490539	0.99877001953125	0.006833740234375	0.002733779907226562	0.9880570068359374	0.002789779901504516	0.012211999893188476	0.9645089721679687	-0.03690800094604492	0.02103409957885742	0.9678189697265625	-0.00022140499949455203	0.01503279972076416	1.006489990234375	0.009301560401916504	0.022196199417114256	0.9908590087890625	0.004366950035095215	0.034039199829101564	0.9694140014648438	-0.03308990097045898	0.0416327018737793	0.9757940063476562	-0.0021842799186706538	0.07899349975585937	0.9379119873046875	-0.007063300132751465	0.07034159851074219	0.9545339965820312	-0.011823800086975098	0.06242129898071289	0.9689910278320313	-0.019832000732421876	0.050911998748779295	0.9904970092773437	-0.0699574966430664	0.03750220108032227	1.03881005859375
2	0.06666666666666667	0.011409000396728515	0.012924699783325196	1.0007899780273437	-0.0024559700489044187	-0.003577850103378296	1.0109199829101563	-0.02937929916381836	-0.005446710109710693	1.0226199951171875	-0.04382500076293945	0.015311699867248535	1.0325999755859374	-0.017371599197387694	-0.009213890075683594	0.8952059936523438	-0.024107999801635742	-0.008871769905090332	0.9173259887695312	-0.030800100326538085	-0.007468180179595947	0.9397780151367188	-0.03938830184936523	-0.001781820058822631	0.9753679809570313	-0.008739879608154297	-0.00187932002544403	0.9979039916992187	0.006243750095367432	0.002541719913482666	0.9867470092773437	0.00208516001701355	0.012150400161743164	0.9633569946289062	-0.0373911018371582	0.02129319953918457	0.967572021484375	8.140409737825301e-05	0.014895500183105469	1.0051799926757812	0.008939439773559571	0.022098100662231446	0.989697021484375	0.0040070700645446775	0.034124000549316406	0.9685560302734375	-0.03323799896240234	0.041754100799560545	0.97547998046875	-0.0017204099893569941	0.08001840209960938	0.938260009765625	-0.006754240036010742	0.07099859619140625	0.9547069702148437	-0.011576199531555175	0.06284260177612305	0.9689459838867187	-0.019788400650024414	0.050955501556396485	0.990114990234375	-0.06921769714355469	0.03747119903564453	1.0387900390625
3	0.1	0.011194299697875977	0.01291100025177002	1.0009000244140625	-0.003022809982299804	-0.003376100063323974	1.0111799926757812	-0.029231300354003908	-0.005224589824676514	1.022739990234375	-0.04384569931030274	0.015242899894714355	1.0324300537109374	-0.01712899971008301	-0.009106900215148926	0.8952069702148437	-0.024013399124145508	-0.008725370407104492	0.917208984375	-0.03078160095214844	-0.007340380191802978	0.9396929931640625	-0.0393671989440918	-0.00172759997844696	0.9753460083007812	-0.008474530220031739	-0.00162090003490448	0.9975650024414062	0.00597337007522583	0.002604160070419311	0.9867789916992188	0.0021000199317932127	0.012083600044250489	0.9632100219726563	-0.03726969909667969	0.02129509925842285	0.9674769897460938	-0.0004406529963016511	0.014900500297546387	1.0056799926757813	0.008964229583740234	0.022132299423217774	0.989541015625	0.004193120002746582	0.03418510055541992	0.9685560302734375	-0.03314699935913086	0.041796699523925784	0.9753900146484376	-0.0009120799899101251	0.08069519805908203	0.938843017578125	-0.006134719848632812	0.07149310302734375	0.9550490112304687	-0.011227999687194824	0.06319200134277343	0.9691209716796875	-0.01966939926147461	0.05101020050048828	0.9899819946289062	-0.06928269958496094	0.03757870101928711	1.0385799560546876
